# xmcd
#
# Track frame offsets: 
#        150
#        10813
#        18004
#        28559
#        39187
#        45874
#        59127
#        67617
#        78195
#        86978
#        100164
#        111247
#        130424
#        144988
#        157535
#        165927
#        172664
#        178340
#        186333
#        195786
#        202478
#        207391
#        214370
#        224316
#        236751
#        244261
#        255652
#        265408
#        272544
#        287156
#        306432
#
# Disc length: 4284 seconds
#
# Revision: 0
# Processed by: cddbd v1.5.1PL0 Copyright (c) Steve Scherf et al.
# Submitted via: ExactAudioCopy v0.95b2
#
DISCID=b310ba1f
DTITLE=Wasowski i Przybora - Piosenki jeszcze Starszych Panow - CD 2 -
DTITLE=O mamo, jaki pan sliczny! (Divertimenta)
DYEAR=2003
DGENRE=Ambient
TTITLE0=Dziewica Anastazja - B. Krafftowna, J. Przybora (op. 7 Zamkowe
TTITLE0=)
TTITLE1=Pani mnie oswoi, madame - W. Michnikowski (op. 7 Zamkowe)
TTITLE2=Ballada o zboju filantropie - W. Glinski, J. Przybora (op. 7 Z
TTITLE2=amkowe)
TTITLE3=Samokolysanka - M. Czechowicz, J. Przybora (op. 7 Zamkowe)
TTITLE4=Nawet i nie tuzy - J. Przybora, B. Krafftowna (op. 7 Zamkowe)
TTITLE5=Badz mi tata - K. Jedrusik, B. Krafftowna (op. 7 Zamkowe)
TTITLE6=I jak tu zyc samotnie - J. Przybora (op. 7 Zamkowe)
TTITLE7=Czemu zgubilas korale - B. Lazuka (op. 7 Zamkowe)
TTITLE8=Kochajcie jemioluszki - I. Kwiatkowska (piosenki z cyklu Diver
TTITLE8=timento)
TTITLE9=Barkarola Paola - B. Lazuka (piosenki z cyklu Divertimento)
TTITLE10=Rzuc chuc - B. Krafftowna (piosenki z cyklu Divertimento)
TTITLE11=Badz dobry i dla meza - B. Krafftowna, B. Pawlik (piosenki z 
TTITLE11=cyklu Divertimento)
TTITLE12=Dobranoc, juz czas na sen - M. Czechowicz (piosenki z cyklu D
TTITLE12=ivertimento)
TTITLE13=O mamo, jaki pan sliczny - Partita (op. 8 Pani Hortensja, cz.
TTITLE13=1 Garden Party czyli bankiet w krzakach)
TTITLE14=Jak sie pan trzyma - K. Sienkiewicz, J. Przybora (op. 8 Pani 
TTITLE14=Hortensja, cz. 1 Garden Party czyli bankiet w krzakach)
TTITLE15=Mezczyzna skowronek - M. Kociniak, Partita (op. 8 Pani Horten
TTITLE15=sja, cz. 1 Garden Party czyli bankiet w krzakach)
TTITLE16=Mezczyzna na zakupy - W. Nowak, Partita (op. 8 Pani Hortensja
TTITLE16=, cz. 1 Garden Party czyli bankiet w krzakach)
TTITLE17=Mezczyzna kulinarny - B. Lazuka (op. 8 Pani Hortensja, cz. 1 
TTITLE17=Garden Party czyli bankiet w krzakach)
TTITLE18=Mezczyzna urlopowy - J. Fedorowicz, Partita (op. 8 Pani Horte
TTITLE18=nsja, cz. 1 Garden Party czyli bankiet w krzakach)
TTITLE19=Mezczyzna sextorpeda - T. Ross (op. 8 Pani Hortensja, cz. 1 G
TTITLE19=arden Party czyli bankiet w krzakach)
TTITLE20=Adziba! Adziba! - Z. Lesniak, C. Julski (op. 8 Pani Hortensja
TTITLE20=, cz. 1 Garden Party czyli bankiet w krzakach)
TTITLE21=To juz final - I. Kwiatkowska, J. Przybora, K. Jedrusik, Z. L
TTITLE21=esniak, K. Sienkiewicz, C. Julski, B. Mlynarska, B. Lazuka (o
TTITLE21=p. 8 Pani Hortensja, cz. 1 Garden Party czyli bankiet w krzak
TTITLE21=ach)
TTITLE22=Przyjdz, przyjdz - H. Kowalska (op. 8 Pani Hortensja, cz. 2 S
TTITLE22=krzypek z kwartetu im. Czastuszkiewicza)
TTITLE23=Spusc drabinke - J. Przybora (op. 8 Pani Hortensja, cz. 2 Skr
TTITLE23=zypek z kwartetu im. Czastuszkiewicza)
TTITLE24=Wspomnienie o dziadku - I. Kwiatkowska (op. 8 Pani Hortensja,
TTITLE24=cz. 2 Skrzypek z kwartetu im. Czastuszkiewicza)
TTITLE25=Nie pozaluje pan - K. Jedrusik (op. 8 Pani Hortensja, cz. 2 S
TTITLE25=krzypek z kwartetu im. Czastuszkiewicza)
TTITLE26=Kwartet im. Czastuszkiewicza - B. Lazuka, C. Julski, Z. Lesni
TTITLE26=ak (op. 8 Pani Hortensja, cz. 2 Skrzypek z kwartetu im. Czast
TTITLE26=uszkiewicza)
TTITLE27=Rodzina, ach rodzina - J. Przybora, J. Wasowski (wersja niepu
TTITLE27=blikowana, 1964) BONUSY
TTITLE28=Ach, ta sciana tak cienka - J. Przybora, B. Wrzesinska, W. Mi
TTITLE28=chnikowski (wersja pierwsza, 1959) BONUSY
TTITLE29=Nad Prosna - J. Przybora, J. Wasowski (wersja pierwsza, 1964)
TTITLE29=BONUSY
TTITLE30=Pas cnoty - W. Glinski (z Kabaretu SZPAK, 1955) BONUSY
EXTD=
EXTT0=
EXTT1=
EXTT2=
EXTT3=
EXTT4=
EXTT5=
EXTT6=
EXTT7=
EXTT8=
EXTT9=
EXTT10=
EXTT11=
EXTT12=
EXTT13=
EXTT14=
EXTT15=
EXTT16=
EXTT17=
EXTT18=
EXTT19=
EXTT20=
EXTT21=
EXTT22=
EXTT23=
EXTT24=
EXTT25=
EXTT26=
EXTT27=
EXTT28=
EXTT29=
EXTT30=
PLAYORDER=
